<svg width="50" height="51" viewBox="0 0 50 51" fill="none" xmlns="http://www.w3.org/2000/svg">
<path d="M9.63952 1.96887H42.6429C45.7564 1.96887 47.3256 3.43845 47.3256 6.42744V27.4001C47.3256 30.3642 45.7564 31.8587 42.6429 31.8587H9.63952C6.526 31.8587 4.95679 30.3642 4.95679 27.4001V6.42744C4.95679 3.43845 6.526 1.96887 9.63952 1.96887ZM26.1287 23.3899L42.9168 9.61568C43.5146 9.11752 43.9879 7.97174 43.2406 6.95051C42.5183 5.92927 41.1982 5.90436 40.3264 6.52707L26.1287 16.1416L11.956 6.52707C11.0842 5.90436 9.76406 5.92927 9.04173 6.95051C8.29448 7.97174 8.76774 9.11752 9.36553 9.61568L26.1287 23.3899Z" fill="white"/>
</svg>
