<svg width="27" height="30" viewBox="0 0 27 30" fill="none" xmlns="http://www.w3.org/2000/svg">
<path d="M14.9731 1.35256C14.5838 0.966076 14.0683 0.750732 13.5325 0.750732C12.9968 0.750732 12.4813 0.966076 12.092 1.35256L1.93462 11.4321C1.62361 11.7411 1.37596 12.1136 1.20686 12.5266C1.03775 12.9397 0.950749 13.3846 0.951173 13.8342V26.0979C0.951729 26.9734 1.28336 27.8129 1.87316 28.4318C2.46297 29.0507 3.26268 29.3983 4.09651 29.3983H7.24185C8.07605 29.3983 8.87608 29.0504 9.46595 28.431C10.0558 27.8116 10.3872 26.9716 10.3872 26.0957V20.5914C10.3872 20.2994 10.4977 20.0194 10.6943 19.8129C10.8909 19.6065 11.1576 19.4905 11.4356 19.4905H15.6294C15.9075 19.4905 16.1742 19.6065 16.3708 19.8129C16.5674 20.0194 16.6779 20.2994 16.6779 20.5914V26.0957C16.6779 26.9716 17.0093 27.8116 17.5991 28.431C18.189 29.0504 18.989 29.3983 19.8232 29.3983H22.9686C23.8028 29.3983 24.6028 29.0504 25.1926 28.431C25.7825 27.8116 26.1139 26.9716 26.1139 26.0957V13.832C26.1138 13.3826 26.0263 12.938 25.8568 12.5254C25.6874 12.1127 25.4395 11.7407 25.1284 11.4321L14.9731 1.34816V1.35256Z" fill="white"/>
</svg>
